<?xml version="1.0" encoding="utf-8"?>
<!-- Generator: Adobe Illustrator 16.0.0, SVG Export Plug-In . SVG Version: 6.00 Build 0)  -->
<!DOCTYPE svg PUBLIC "-//W3C//DTD SVG 1.1//EN" "http://www.w3.org/Graphics/SVG/1.1/DTD/svg11.dtd">
<svg version="1.1" id="Ebene_1" xmlns="http://www.w3.org/2000/svg" xmlns:xlink="http://www.w3.org/1999/xlink" x="0px" y="0px"
	 preserveAspectRatio="xMidYMid meet" viewBox="0 0 600 248.692" enable-background="new 0 0 600 248.692" xml:space="preserve">
<g>
	<path d="M581.853,247.916h8.431c0.542,0,1.006-0.015,1.393-0.043c0.376-0.031,0.681-0.105,0.921-0.223
		c0.241-0.117,0.411-0.276,0.525-0.493c0.103-0.216,0.166-0.503,0.166-0.868v-0.29l-4.132-0.542v-14.725
		c0.535-0.528,1.109-1.035,1.697-1.495c0.585-0.461,1.181-0.854,1.779-1.198c0.595-0.34,1.19-0.603,1.786-0.801
		c0.588-0.195,1.162-0.283,1.719-0.283c0.496,0,0.964,0.046,1.41,0.135l0.481,3.643h0.326c0.38,0,0.667-0.061,0.879-0.163
		c0.213-0.106,0.376-0.283,0.489-0.528c0.12-0.233,0.191-0.566,0.227-0.981c0.032-0.4,0.05-0.907,0.05-1.51v-2.855
		c-0.479-0.171-0.981-0.305-1.534-0.4c-0.542-0.093-1.138-0.149-1.783-0.149c-1.197,0-2.431,0.326-3.688,0.979
		c-1.269,0.645-2.541,1.523-3.855,2.646c-0.028-0.244-0.061-0.531-0.074-0.879c-0.021-0.333-0.064-0.662-0.082-0.967
		c-0.046-0.354-0.074-0.713-0.113-1.085h-3.444c-0.553,0-1.018,0.015-1.403,0.047c-0.376,0.035-0.681,0.103-0.914,0.223
		c-0.224,0.106-0.387,0.276-0.504,0.496c-0.113,0.22-0.163,0.518-0.163,0.872v0.326l3.551,0.496v18.094l-2.303,0.383
		c-0.648,0.135-1.113,0.312-1.396,0.524c-0.283,0.227-0.425,0.596-0.425,1.142v0.475H581.853z M570.874,227.135
		c0.712,0.298,1.336,0.769,1.886,1.406c0.531,0.642,0.971,1.464,1.282,2.481c0.319,0.999,0.514,2.211,0.55,3.636h-13.126
		c0.12-1.368,0.403-2.559,0.851-3.551c0.442-0.996,0.981-1.829,1.633-2.488c0.649-0.659,1.364-1.134,2.158-1.445
		c0.787-0.319,1.588-0.476,2.424-0.476C569.382,226.681,570.162,226.831,570.874,227.135 M575.237,244.262
		c-0.847,0.51-1.8,0.953-2.811,1.332c-1.021,0.379-2.129,0.57-3.327,0.57c-1.368,0-2.526-0.266-3.479-0.818
		c-0.961-0.549-1.74-1.262-2.347-2.147c-0.609-0.886-1.062-1.893-1.36-2.98c-0.298-1.102-0.475-2.204-0.518-3.31h16.252
		c0-0.015,0.007-0.074,0.014-0.188s0.011-0.228,0.011-0.348v-0.354v-0.213c0-2.069-0.224-3.852-0.691-5.329
		c-0.468-1.481-1.119-2.693-1.924-3.629c-0.805-0.939-1.769-1.623-2.863-2.062c-1.099-0.433-2.289-0.659-3.551-0.659
		c-1.279,0-2.534,0.23-3.777,0.691c-1.255,0.46-2.357,1.184-3.353,2.161c-0.979,0.985-1.765,2.232-2.374,3.757
		c-0.606,1.523-0.907,3.338-0.907,5.457c0,1.63,0.216,3.196,0.655,4.699c0.439,1.51,1.092,2.835,1.971,3.986
		c0.878,1.151,1.97,2.077,3.281,2.771c1.304,0.69,2.846,1.042,4.593,1.042c0.772,0,1.502-0.071,2.193-0.206
		c0.684-0.127,1.35-0.298,1.97-0.514c0.621-0.216,1.216-0.461,1.779-0.744c0.563-0.272,1.12-0.581,1.634-0.9L575.237,244.262z
		 M540.349,227.348h3.366v14.075c0,1.131,0.117,2.147,0.344,3.03c0.234,0.882,0.603,1.634,1.109,2.257
		c0.518,0.624,1.166,1.099,1.988,1.418c0.818,0.326,1.796,0.496,2.962,0.496c1.414,0,2.967-0.23,4.656-0.694l-0.531-2.371
		c-0.631,0.156-1.18,0.276-1.68,0.365c-0.496,0.085-1.024,0.127-1.605,0.127c-1.421,0-2.441-0.396-3.094-1.197
		c-0.645-0.805-0.971-2.062-0.971-3.778v-13.707h4.022c0.518,0,0.938-0.014,1.275-0.042c0.337-0.039,0.613-0.096,0.818-0.202
		c0.22-0.096,0.369-0.244,0.447-0.454c0.096-0.198,0.142-0.468,0.142-0.801v-0.988h-6.705v-8.098l-3.179,0.326v7.761h-0.677
		c-0.507,0-0.932,0.018-1.279,0.053c-0.344,0.032-0.624,0.089-0.833,0.199c-0.205,0.099-0.354,0.24-0.446,0.446
		c-0.085,0.198-0.142,0.475-0.142,0.808L540.349,227.348L540.349,227.348z M531.542,231.844v16.075h3.707
		c0.546,0,1.021-0.015,1.396-0.043c0.375-0.032,0.684-0.106,0.921-0.224c0.241-0.116,0.404-0.283,0.507-0.499
		c0.096-0.217,0.148-0.503,0.148-0.876v-0.297l-3.501-0.485V231.54c0-1.325-0.146-2.459-0.436-3.395
		c-0.294-0.942-0.712-1.708-1.283-2.304c-0.566-0.581-1.279-1.014-2.098-1.29c-0.825-0.269-1.779-0.411-2.856-0.411
		s-2.342,0.224-3.82,0.681c-1.474,0.454-3.037,1.07-4.678,1.857c-0.031-0.22-0.057-0.437-0.077-0.674
		c-0.015-0.227-0.028-0.425-0.05-0.595c-0.015-0.202-0.028-0.391-0.043-0.574h-3.451c-0.557,0-1.021,0.014-1.396,0.046
		c-0.379,0.035-0.684,0.103-0.911,0.223c-0.229,0.114-0.4,0.277-0.517,0.497c-0.1,0.22-0.16,0.517-0.16,0.871v0.326l3.533,0.496
		v18.066l-2.278,0.393c-0.655,0.132-1.123,0.312-1.421,0.528c-0.287,0.227-0.433,0.603-0.433,1.148v0.481h7.506
		c0.553,0,1.017-0.014,1.396-0.042c0.382-0.032,0.684-0.103,0.921-0.224c0.241-0.117,0.404-0.283,0.518-0.499
		c0.089-0.217,0.148-0.507,0.148-0.876v-0.298l-3.179-0.46v-16.256c0.613-0.29,1.269-0.573,1.971-0.85
		c0.688-0.277,1.389-0.528,2.062-0.741c0.684-0.216,1.336-0.379,1.97-0.514c0.631-0.135,1.191-0.202,1.68-0.202
		c1.407,0,2.456,0.379,3.147,1.131C531.198,228.84,531.542,230.094,531.542,231.844 M501.97,227.135
		c0.705,0.298,1.34,0.769,1.878,1.406c0.535,0.642,0.979,1.464,1.29,2.481c0.319,0.999,0.503,2.211,0.542,3.636h-13.129
		c0.124-1.368,0.407-2.559,0.854-3.551c0.439-0.996,0.989-1.829,1.63-2.488c0.646-0.659,1.368-1.134,2.155-1.445
		c0.794-0.319,1.602-0.476,2.431-0.476C500.475,226.681,501.254,226.831,501.97,227.135 M506.336,244.262
		c-0.858,0.51-1.804,0.953-2.821,1.332c-1.021,0.379-2.133,0.57-3.331,0.57c-1.368,0-2.523-0.266-3.479-0.818
		c-0.95-0.549-1.74-1.262-2.347-2.147c-0.605-0.886-1.06-1.893-1.356-2.98c-0.302-1.102-0.476-2.204-0.518-3.31h16.251
		c0-0.015,0.011-0.074,0.019-0.188c0.007-0.113,0.014-0.228,0.014-0.348v-0.354v-0.213c0-2.069-0.237-3.852-0.705-5.329
		c-0.468-1.481-1.109-2.693-1.921-3.629c-0.815-0.939-1.761-1.623-2.867-2.062c-1.102-0.433-2.285-0.659-3.551-0.659
		c-1.282,0-2.53,0.23-3.777,0.691c-1.244,0.46-2.36,1.184-3.342,2.161c-0.985,0.985-1.775,2.232-2.378,3.757
		c-0.609,1.523-0.914,3.338-0.914,5.457c0,1.63,0.22,3.196,0.659,4.699c0.433,1.51,1.103,2.835,1.967,3.986
		c0.875,1.151,1.971,2.077,3.285,2.771c1.311,0.688,2.842,1.042,4.593,1.042c0.779,0,1.499-0.071,2.193-0.206
		c0.691-0.127,1.347-0.298,1.971-0.514c0.616-0.216,1.212-0.461,1.782-0.744c0.57-0.272,1.116-0.581,1.637-0.9L506.336,244.262z
		 M485.095,215.672c-1.272-0.648-2.552-1.135-3.845-1.457c-1.287-0.336-2.645-0.499-4.029-0.499c-2.091,0-3.983,0.351-5.678,1.049
		c-1.701,0.69-3.14,1.754-4.345,3.189c-1.204,1.432-2.137,3.221-2.799,5.375c-0.663,2.158-0.982,4.692-0.982,7.616
		c0,2.994,0.341,5.599,1.003,7.807c0.681,2.208,1.623,4.047,2.856,5.511c1.227,1.449,2.7,2.544,4.412,3.264
		c1.719,0.723,3.611,1.084,5.702,1.084c1.488,0,2.898-0.184,4.245-0.542c1.347-0.354,2.661-0.879,3.948-1.577l-1.057-2.119
		c-1.063,0.553-2.126,0.975-3.189,1.272c-1.07,0.29-2.215,0.433-3.466,0.433c-1.693,0-3.225-0.305-4.61-0.922
		c-1.378-0.609-2.565-1.556-3.554-2.8c-0.982-1.269-1.751-2.835-2.304-4.727c-0.55-1.893-0.818-4.118-0.818-6.684
		c0-2.499,0.255-4.678,0.797-6.521c0.528-1.847,1.275-3.37,2.243-4.589c0.968-1.213,2.137-2.112,3.498-2.708
		c1.367-0.581,2.898-0.879,4.585-0.879c0.894,0,1.74,0.074,2.523,0.217c0.794,0.148,1.573,0.368,2.35,0.645l0.574,4.323h0.298
		c0.379,0,0.673-0.061,0.879-0.163c0.205-0.106,0.379-0.276,0.496-0.514c0.113-0.224,0.198-0.528,0.227-0.907
		c0.031-0.376,0.046-0.833,0.046-1.396L485.095,215.672L485.095,215.672z M438.555,227.135c0.709,0.298,1.34,0.769,1.885,1.406
		c0.528,0.642,0.968,1.464,1.283,2.481c0.319,0.999,0.514,2.211,0.553,3.636h-13.133c0.128-1.368,0.407-2.559,0.854-3.551
		c0.443-0.996,0.982-1.829,1.623-2.488c0.656-0.659,1.364-1.134,2.166-1.445c0.793-0.319,1.591-0.476,2.427-0.476
		C437.06,226.681,437.843,226.831,438.555,227.135 M442.924,244.262c-0.861,0.51-1.807,0.953-2.817,1.332
		c-1.017,0.379-2.137,0.57-3.334,0.57c-1.368,0-2.517-0.266-3.48-0.818c-0.949-0.549-1.729-1.262-2.339-2.147
		c-0.603-0.886-1.056-1.893-1.36-2.98c-0.298-1.102-0.468-2.204-0.514-3.31h16.251c0-0.015,0-0.074,0.007-0.188
		c0.008-0.113,0.015-0.228,0.015-0.348v-0.354v-0.213c0-2.069-0.224-3.852-0.691-5.329c-0.468-1.481-1.123-2.693-1.92-3.629
		c-0.819-0.939-1.772-1.623-2.871-2.062c-1.099-0.433-2.282-0.659-3.558-0.659c-1.272,0-2.523,0.23-3.777,0.691
		c-1.248,0.46-2.35,1.184-3.342,2.161c-0.981,0.985-1.765,2.232-2.375,3.757c-0.605,1.523-0.907,3.338-0.907,5.457
		c0,1.63,0.22,3.196,0.659,4.699c0.433,1.51,1.092,2.835,1.964,3.986c0.879,1.151,1.97,2.077,3.285,2.771
		c1.304,0.688,2.835,1.042,4.596,1.042c0.766,0,1.495-0.071,2.193-0.206c0.681-0.127,1.34-0.298,1.971-0.514
		c0.62-0.216,1.216-0.461,1.775-0.744c0.563-0.272,1.123-0.581,1.634-0.9L442.924,244.262z M420.325,244.578
		c-0.811,0.4-1.641,0.751-2.526,1.049c-0.879,0.298-1.814,0.446-2.8,0.446c-1.141,0-2.196-0.209-3.179-0.609
		c-0.964-0.397-1.789-1.027-2.494-1.867c-0.705-0.837-1.248-1.89-1.638-3.154c-0.383-1.269-0.588-2.771-0.588-4.504
		c0-1.705,0.216-3.14,0.62-4.313c0.414-1.176,0.985-2.133,1.684-2.87c0.701-0.737,1.534-1.269,2.463-1.588
		c0.928-0.318,1.906-0.485,2.944-0.485c0.659,0,1.262,0.046,1.814,0.121c0.56,0.088,1.116,0.216,1.645,0.364l0.531,3.941h0.319
		c0.368,0,0.659-0.061,0.879-0.163c0.212-0.106,0.375-0.276,0.481-0.514c0.1-0.224,0.178-0.528,0.206-0.907
		c0.035-0.376,0.049-0.833,0.049-1.396v-2.789c-1.021-0.394-2.034-0.691-2.998-0.893c-0.984-0.213-2.026-0.306-3.121-0.306
		c-1.411,0-2.758,0.21-4.04,0.624c-1.279,0.418-2.417,1.095-3.402,2.03c-0.992,0.936-1.779,2.155-2.36,3.65
		c-0.588,1.495-0.879,3.338-0.879,5.521c0,2.165,0.284,4.04,0.844,5.631c0.557,1.591,1.329,2.898,2.304,3.94
		c0.981,1.035,2.126,1.808,3.458,2.321c1.326,0.503,2.758,0.758,4.288,0.758c1.205,0,2.354-0.181,3.459-0.521
		c1.112-0.351,2.165-0.79,3.154-1.325L420.325,244.578z M393.72,231.844v16.075h3.703c0.553,0,1.014-0.015,1.393-0.043
		c0.383-0.032,0.684-0.106,0.932-0.224c0.23-0.116,0.397-0.283,0.507-0.499c0.106-0.217,0.148-0.503,0.148-0.876v-0.297
		l-3.501-0.485V231.54c0-1.325-0.146-2.459-0.439-3.395c-0.29-0.942-0.723-1.708-1.286-2.304c-0.56-0.581-1.265-1.014-2.095-1.29
		c-0.829-0.269-1.775-0.411-2.849-0.411c-1.077,0-2.35,0.224-3.834,0.681c-1.468,0.457-3.034,1.07-4.675,1.857
		c-0.031-0.22-0.053-0.437-0.067-0.674c-0.014-0.227-0.035-0.425-0.05-0.595c-0.024-0.202-0.039-0.391-0.06-0.574h-3.452
		c-0.542,0-1.006,0.014-1.396,0.046c-0.372,0.035-0.678,0.103-0.907,0.223c-0.224,0.114-0.391,0.277-0.504,0.497
		s-0.166,0.517-0.166,0.871v0.326l3.525,0.496v18.066l-2.282,0.393c-0.645,0.132-1.112,0.312-1.403,0.528
		c-0.29,0.227-0.439,0.603-0.439,1.148v0.481h7.503c0.553,0,1.013-0.014,1.403-0.042c0.372-0.032,0.68-0.103,0.925-0.224
		c0.223-0.113,0.394-0.283,0.503-0.499c0.106-0.217,0.148-0.507,0.148-0.876v-0.298l-3.175-0.46v-16.256
		c0.609-0.29,1.279-0.573,1.963-0.85c0.702-0.277,1.394-0.528,2.077-0.741c0.681-0.216,1.34-0.379,1.97-0.514
		c0.631-0.139,1.188-0.202,1.681-0.202c1.396,0,2.444,0.379,3.143,1.131C393.368,228.84,393.72,230.094,393.72,231.844
		 M363.672,227.135c0.713,0.298,1.34,0.769,1.878,1.406c0.543,0.642,0.975,1.464,1.29,2.481c0.319,0.999,0.504,2.211,0.553,3.636
		H354.26c0.124-1.368,0.4-2.559,0.844-3.551c0.446-0.996,0.988-1.829,1.634-2.488c0.648-0.659,1.367-1.134,2.158-1.445
		c0.797-0.319,1.598-0.476,2.438-0.476C362.177,226.681,362.952,226.831,363.672,227.135 M368.038,244.262
		c-0.865,0.51-1.801,0.953-2.821,1.332c-1.023,0.379-2.133,0.57-3.331,0.57c-1.367,0-2.52-0.266-3.479-0.818
		c-0.95-0.549-1.729-1.262-2.336-2.147c-0.605-0.886-1.06-1.893-1.36-2.98c-0.298-1.102-0.472-2.204-0.531-3.31h16.266
		c0-0.015,0.007-0.074,0.014-0.188c0.008-0.113,0.008-0.228,0.008-0.348v-0.354v-0.213c0-2.069-0.23-3.852-0.698-5.329
		c-0.472-1.481-1.109-2.693-1.914-3.629c-0.822-0.939-1.771-1.623-2.87-2.062c-1.105-0.433-2.282-0.659-3.559-0.659
		c-1.271,0-2.533,0.23-3.777,0.691c-1.24,0.46-2.346,1.184-3.338,2.161c-0.981,0.985-1.779,2.232-2.389,3.757
		c-0.603,1.523-0.907,3.338-0.907,5.457c0,1.63,0.227,3.196,0.666,4.699c0.439,1.51,1.096,2.835,1.971,3.986
		c0.864,1.151,1.971,2.077,3.274,2.771c1.312,0.69,2.842,1.042,4.604,1.042c0.772,0,1.499-0.071,2.189-0.206
		c0.688-0.127,1.347-0.298,1.971-0.514c0.62-0.216,1.212-0.461,1.786-0.744c0.566-0.272,1.109-0.581,1.63-0.9L368.038,244.262z
		 M339.241,214.53c-0.372,0.376-0.545,1.021-0.545,1.992c0,0.978,0.184,1.637,0.545,2.013c0.376,0.372,1.031,0.546,2.013,0.546
		c0.972,0,1.623-0.191,1.992-0.546c0.361-0.376,0.531-1.035,0.531-2.013c0-0.476-0.039-0.865-0.117-1.205
		c-0.081-0.333-0.227-0.596-0.414-0.787c-0.188-0.198-0.454-0.333-0.783-0.411c-0.333-0.078-0.733-0.12-1.209-0.12
		C340.273,213.992,339.611,214.176,339.241,214.53 M342.857,245.428l4.135,0.553v0.297c0,0.38-0.063,0.667-0.162,0.876
		c-0.104,0.216-0.28,0.375-0.532,0.499c-0.223,0.11-0.531,0.191-0.921,0.224c-0.372,0.028-0.829,0.043-1.368,0.043h-8.455v-0.482
		c0-0.546,0.142-0.936,0.432-1.148c0.28-0.22,0.745-0.383,1.39-0.527l2.304-0.394v-18.066l-3.52-0.496v-0.326
		c0-0.368,0.05-0.666,0.149-0.871c0.099-0.209,0.266-0.376,0.507-0.496c0.237-0.113,0.542-0.191,0.928-0.224
		c0.376-0.032,0.833-0.046,1.396-0.046h3.721L342.857,245.428L342.857,245.428z M330.368,244.578
		c-0.809,0.4-1.638,0.751-2.523,1.049c-0.879,0.298-1.814,0.446-2.796,0.446c-1.151,0-2.208-0.209-3.179-0.609
		c-0.975-0.397-1.8-1.027-2.502-1.867c-0.694-0.833-1.24-1.89-1.63-3.154c-0.383-1.269-0.589-2.771-0.589-4.504
		c0-1.705,0.217-3.14,0.621-4.313c0.414-1.176,0.984-2.133,1.693-2.87c0.691-0.737,1.523-1.269,2.452-1.588
		c0.929-0.318,1.903-0.485,2.948-0.485c0.656,0,1.259,0.046,1.812,0.121c0.56,0.088,1.116,0.216,1.644,0.364l0.532,3.941h0.322
		c0.368,0,0.659-0.061,0.879-0.163c0.213-0.106,0.376-0.276,0.481-0.514c0.106-0.224,0.178-0.528,0.206-0.907
		c0.032-0.376,0.061-0.833,0.061-1.396v-2.789c-1.031-0.394-2.042-0.691-3.009-0.893c-0.985-0.213-2.027-0.306-3.122-0.306
		c-1.41,0-2.761,0.21-4.04,0.624c-1.283,0.418-2.424,1.099-3.409,2.034c-0.996,0.936-1.779,2.162-2.36,3.65
		c-0.588,1.495-0.879,3.342-0.879,5.521c0,2.169,0.284,4.04,0.844,5.635c0.56,1.591,1.329,2.898,2.304,3.94
		c0.985,1.031,2.126,1.808,3.451,2.325c1.329,0.503,2.765,0.758,4.299,0.758c1.194,0,2.35-0.184,3.455-0.524
		c1.116-0.354,2.165-0.794,3.154-1.325L330.368,244.578z M288.354,245.96c1.297,0.833,2.821,1.481,4.543,1.949
		c1.715,0.468,3.597,0.698,5.642,0.698c0.872,0,1.758-0.075,2.647-0.22c0.89-0.149,1.743-0.376,2.59-0.685
		c0.83-0.305,1.616-0.69,2.339-1.158c0.727-0.468,1.354-1.018,1.9-1.659c0.534-0.638,0.971-1.36,1.279-2.179
		c0.308-0.819,0.46-1.727,0.46-2.722c0-1.386-0.241-2.584-0.747-3.59c-0.504-1.01-1.159-1.91-2.006-2.708
		c-0.829-0.786-1.814-1.495-2.928-2.126c-1.123-0.631-2.274-1.262-3.486-1.871c-1.028-0.51-2.042-1.034-3.02-1.588
		c-0.985-0.549-1.854-1.145-2.622-1.789c-0.763-0.648-1.372-1.354-1.833-2.119c-0.46-0.776-0.68-1.638-0.68-2.604
		c0-1.018,0.233-1.868,0.744-2.552c0.496-0.684,1.127-1.219,1.885-1.619c0.766-0.394,1.592-0.681,2.499-0.848
		c0.896-0.173,1.736-0.255,2.544-0.255c1.06,0,2.087,0.113,3.098,0.333c1.021,0.22,1.963,0.482,2.835,0.801l0.481,3.707h0.326
		c0.379,0,0.67-0.057,0.872-0.163c0.22-0.099,0.375-0.27,0.496-0.503c0.12-0.237,0.202-0.539,0.227-0.918
		c0.035-0.376,0.05-0.833,0.05-1.396v-2.342c-1.212-0.582-2.573-1.085-4.068-1.496s-3.076-0.623-4.734-0.623
		c-0.751,0-1.534,0.063-2.346,0.17c-0.815,0.12-1.605,0.305-2.399,0.56c-0.783,0.245-1.534,0.57-2.232,0.971
		c-0.716,0.404-1.34,0.894-1.882,1.481c-0.528,0.581-0.95,1.269-1.262,2.038c-0.315,0.772-0.475,1.658-0.475,2.644
		c0,1.279,0.244,2.417,0.762,3.416c0.507,0.999,1.188,1.906,2.038,2.729c0.854,0.822,1.839,1.566,2.962,2.226
		c1.12,0.674,2.297,1.29,3.522,1.893c1.109,0.549,2.151,1.099,3.133,1.641c0.979,0.546,1.843,1.134,2.58,1.771
		c0.737,0.646,1.321,1.347,1.761,2.134c0.429,0.786,0.656,1.68,0.656,2.693c0,1.049-0.248,1.931-0.744,2.668
		c-0.504,0.737-1.148,1.347-1.942,1.836c-0.787,0.485-1.68,0.829-2.661,1.056c-0.985,0.224-1.974,0.337-2.945,0.337
		c-1.435,0-2.785-0.148-4.029-0.446c-1.243-0.305-2.342-0.677-3.313-1.124l-0.542-4.075h-0.326c-0.379,0-0.669,0.054-0.871,0.149
		c-0.228,0.092-0.383,0.266-0.5,0.514c-0.117,0.23-0.198,0.542-0.227,0.914c-0.035,0.379-0.05,0.84-0.05,1.396V245.96
		L288.354,245.96z M259.745,247.916h8.42c0.553,0,1.021-0.015,1.406-0.043c0.376-0.031,0.681-0.105,0.918-0.223
		c0.228-0.117,0.4-0.276,0.507-0.493c0.103-0.216,0.149-0.503,0.149-0.868v-0.29l-4.097-0.542v-31.745h-3.735
		c-0.539,0-1.003,0.014-1.389,0.043c-0.376,0.042-0.681,0.105-0.915,0.223c-0.223,0.106-0.396,0.276-0.503,0.493
		c-0.106,0.223-0.163,0.517-0.163,0.875v0.298l3.522,0.485v29.253l-2.3,0.387c-0.655,0.135-1.12,0.312-1.403,0.521
		c-0.276,0.224-0.418,0.596-0.418,1.145V247.916z M242.264,245.758c-0.659-0.224-1.255-0.531-1.786-0.975
		c-0.528-0.433-0.964-0.968-1.29-1.605c-0.344-0.645-0.518-1.406-0.518-2.261c0.019-1.584,0.554-2.781,1.603-3.593
		s2.466-1.22,4.252-1.22h1.68c0.489,0,1.035,0.008,1.638,0.015c0.595,0.007,1.18,0.007,1.736,0.007v8.435
		c-0.879,0.446-1.743,0.814-2.591,1.091c-0.829,0.283-1.754,0.426-2.778,0.426C243.575,246.077,242.923,245.97,242.264,245.758
		 M253.321,247.916c0.553,0,1.021-0.015,1.396-0.043c0.379-0.031,0.684-0.105,0.917-0.223c0.238-0.117,0.408-0.283,0.518-0.5
		c0.106-0.216,0.149-0.507,0.149-0.875v-0.298l-3.522-0.485v-12.85c0-1.726-0.224-3.137-0.642-4.238
		c-0.415-1.105-0.981-1.978-1.708-2.608c-0.713-0.627-1.531-1.063-2.463-1.293c-0.929-0.241-1.896-0.365-2.892-0.365
		c-0.485,0-1.018,0.035-1.638,0.099c-0.613,0.078-1.265,0.174-1.924,0.312c-0.666,0.135-1.34,0.305-2.023,0.503
		c-0.688,0.191-1.344,0.39-1.971,0.631l0.648,2.208c0.55-0.202,1.116-0.38,1.688-0.535c0.581-0.163,1.145-0.305,1.697-0.429
		c0.549-0.121,1.077-0.217,1.587-0.284c0.496-0.074,0.943-0.103,1.326-0.103c0.726,0,1.417,0.096,2.037,0.287
		c0.62,0.195,1.177,0.528,1.638,0.999c0.46,0.472,0.814,1.113,1.069,1.893c0.252,0.78,0.376,1.751,0.376,2.928v1.378
		c-0.538-0.018-1.13-0.024-1.726-0.031c-0.603-0.008-1.162-0.015-1.694-0.029c-0.531-0.007-0.984-0.007-1.371-0.007h-0.733
		c-1.233,0-2.367,0.149-3.413,0.437c-1.045,0.286-1.935,0.719-2.683,1.308c-0.755,0.573-1.343,1.317-1.761,2.211
		c-0.426,0.9-0.638,1.956-0.638,3.168s0.23,2.289,0.705,3.231c0.485,0.936,1.105,1.727,1.864,2.347
		c0.762,0.631,1.604,1.105,2.559,1.435c0.945,0.33,1.881,0.496,2.807,0.496c1.247,0,2.367-0.17,3.366-0.51
		c0.999-0.337,1.96-0.751,2.892-1.244c0.014,0.149,0.028,0.291,0.046,0.408c0.015,0.124,0.028,0.229,0.043,0.329
		c0.014,0.1,0.031,0.216,0.057,0.319h3.423L253.321,247.916L253.321,247.916z M223.794,214.53c-0.379,0.376-0.56,1.021-0.56,1.992
		c0,0.978,0.188,1.637,0.56,2.013c0.361,0.372,1.031,0.546,1.998,0.546c0.982,0,1.638-0.191,1.992-0.546
		c0.376-0.376,0.546-1.035,0.546-2.013c0-0.476-0.043-0.865-0.128-1.205c-0.085-0.333-0.224-0.596-0.418-0.787
		c-0.191-0.198-0.454-0.333-0.779-0.411c-0.334-0.078-0.737-0.12-1.213-0.12C224.825,213.992,224.152,214.176,223.794,214.53
		 M227.406,245.428l4.128,0.553v0.297c0,0.38-0.057,0.667-0.163,0.876c-0.106,0.213-0.283,0.375-0.521,0.499
		c-0.241,0.11-0.542,0.191-0.933,0.224c-0.372,0.028-0.829,0.043-1.367,0.043h-8.456v-0.482c0-0.546,0.143-0.936,0.429-1.148
		c0.284-0.22,0.745-0.383,1.403-0.527l2.301-0.394v-18.066l-3.526-0.503v-0.326c0-0.368,0.061-0.666,0.148-0.871
		c0.1-0.213,0.27-0.376,0.518-0.497c0.23-0.113,0.535-0.19,0.925-0.223c0.376-0.032,0.829-0.046,1.39-0.046h3.731L227.406,245.428
		L227.406,245.428z M214.68,244.578c-0.809,0.4-1.638,0.751-2.523,1.049c-0.879,0.298-1.814,0.446-2.8,0.446
		c-1.141,0-2.2-0.209-3.179-0.609c-0.964-0.397-1.8-1.027-2.494-1.867c-0.698-0.837-1.241-1.89-1.631-3.154
		c-0.386-1.269-0.588-2.771-0.588-4.504c0-1.705,0.216-3.14,0.616-4.313c0.418-1.176,0.985-2.133,1.688-2.87
		c0.705-0.737,1.53-1.269,2.463-1.588c0.928-0.318,1.906-0.485,2.944-0.485c0.655,0,1.251,0.046,1.814,0.121
		c0.56,0.088,1.112,0.216,1.645,0.364l0.531,3.941h0.319c0.368,0,0.659-0.061,0.868-0.163c0.22-0.106,0.379-0.276,0.492-0.514
		c0.096-0.224,0.178-0.528,0.206-0.907c0.028-0.376,0.049-0.833,0.049-1.396v-2.789c-1.021-0.394-2.033-0.691-3.001-0.893
		c-0.981-0.213-2.023-0.306-3.118-0.306c-1.414,0-2.758,0.21-4.04,0.624c-1.279,0.418-2.417,1.095-3.402,2.03
		c-0.992,0.936-1.779,2.155-2.36,3.65c-0.588,1.495-0.879,3.338-0.879,5.521c0,2.165,0.284,4.04,0.844,5.631
		c0.553,1.591,1.329,2.898,2.304,3.94c0.981,1.035,2.126,1.808,3.455,2.321c1.329,0.503,2.761,0.758,4.291,0.758
		c1.198,0,2.354-0.181,3.459-0.521c1.109-0.351,2.158-0.79,3.154-1.325L214.68,244.578z M177.452,231.774
		c0.38-1.227,0.865-2.215,1.499-2.963c0.628-0.751,1.375-1.297,2.236-1.623c0.857-0.333,1.771-0.496,2.735-0.496
		c0.982,0,1.882,0.163,2.708,0.496c0.84,0.326,1.584,0.872,2.2,1.623c0.635,0.748,1.124,1.736,1.479,2.963
		c0.364,1.226,0.542,2.75,0.542,4.557c0,1.801-0.185,3.317-0.542,4.568c-0.365,1.251-0.844,2.243-1.479,3.016
		c-0.638,0.772-1.36,1.318-2.2,1.658c-0.829,0.348-1.736,0.511-2.708,0.511c-0.964,0-1.878-0.163-2.735-0.511
		c-0.861-0.34-1.608-0.886-2.236-1.658c-0.634-0.772-1.13-1.765-1.499-3.016c-0.365-1.251-0.542-2.768-0.542-4.568
		C176.904,234.52,177.087,232.997,177.452,231.774 M174.543,242.104c0.546,1.562,1.286,2.82,2.211,3.784
		c0.929,0.975,2.006,1.669,3.226,2.084c1.219,0.425,2.498,0.638,3.834,0.638c1.332,0,2.629-0.213,3.855-0.638
		c1.227-0.415,2.311-1.116,3.25-2.084c0.953-0.964,1.708-2.222,2.268-3.784c0.567-1.56,0.851-3.473,0.851-5.748
		s-0.27-4.186-0.818-5.748c-0.542-1.56-1.287-2.811-2.201-3.76c-0.921-0.961-1.984-1.645-3.196-2.062
		c-1.219-0.418-2.498-0.638-3.827-0.638c-1.332,0-2.637,0.22-3.87,0.638c-1.24,0.418-2.339,1.112-3.281,2.062
		c-0.939,0.946-1.701,2.2-2.268,3.76c-0.561,1.562-0.844,3.473-0.844,5.748S173.997,240.549,174.543,242.104 M148.107,245.96
		c1.308,0.833,2.817,1.481,4.54,1.949c1.729,0.468,3.601,0.698,5.652,0.698c0.864,0,1.747-0.075,2.644-0.22
		c0.886-0.149,1.75-0.376,2.59-0.685c0.844-0.305,1.613-0.69,2.347-1.158s1.356-1.018,1.892-1.659
		c0.543-0.638,0.982-1.36,1.287-2.179c0.308-0.819,0.464-1.727,0.464-2.722c0-1.386-0.255-2.584-0.751-3.59
		c-0.5-1.01-1.17-1.91-2.002-2.708c-0.841-0.786-1.814-1.495-2.941-2.126c-1.106-0.631-2.275-1.262-3.487-1.871
		c-1.027-0.51-2.034-1.034-3.02-1.588c-0.981-0.549-1.85-1.145-2.608-1.789c-0.765-0.648-1.375-1.354-1.835-2.119
		c-0.461-0.776-0.688-1.638-0.688-2.604c0-1.018,0.248-1.868,0.744-2.552c0.514-0.684,1.134-1.219,1.892-1.619
		c0.759-0.394,1.588-0.681,2.488-0.848c0.9-0.163,1.743-0.255,2.544-0.255c1.063,0,2.099,0.113,3.108,0.333
		c1.006,0.22,1.96,0.482,2.824,0.801l0.485,3.707h0.33c0.368,0,0.659-0.057,0.868-0.163c0.223-0.099,0.379-0.27,0.503-0.503
		c0.106-0.234,0.188-0.539,0.216-0.918c0.036-0.376,0.05-0.833,0.05-1.396v-2.342c-1.212-0.582-2.565-1.085-4.054-1.496
		c-1.499-0.411-3.091-0.623-4.749-0.623c-0.747,0-1.53,0.063-2.342,0.17c-0.826,0.12-1.616,0.305-2.396,0.56
		c-0.782,0.245-1.53,0.57-2.246,0.971c-0.713,0.404-1.333,0.894-1.864,1.481c-0.531,0.581-0.964,1.269-1.279,2.038
		c-0.312,0.772-0.475,1.658-0.475,2.644c0,1.279,0.255,2.417,0.766,3.416c0.514,0.999,1.184,1.906,2.041,2.729
		c0.84,0.822,1.839,1.566,2.948,2.226c1.127,0.663,2.296,1.29,3.533,1.893c1.105,0.549,2.154,1.099,3.125,1.641
		c0.985,0.546,1.847,1.134,2.58,1.771c0.733,0.646,1.322,1.347,1.762,2.134c0.439,0.786,0.655,1.68,0.655,2.693
		c0,1.049-0.241,1.931-0.748,2.668c-0.503,0.737-1.13,1.347-1.924,1.836c-0.801,0.485-1.694,0.829-2.672,1.056
		c-0.992,0.224-1.971,0.337-2.945,0.337c-1.435,0-2.792-0.148-4.021-0.446c-1.248-0.305-2.35-0.677-3.317-1.124l-0.553-4.075h-0.326
		c-0.368,0-0.659,0.054-0.871,0.149c-0.22,0.092-0.376,0.266-0.497,0.514c-0.116,0.23-0.19,0.542-0.219,0.914
		c-0.043,0.379-0.058,0.84-0.058,1.396v2.65h0.011V245.96z M124.754,231.844v16.075h3.703c0.549,0,1.017-0.015,1.403-0.043
		c0.375-0.032,0.68-0.106,0.921-0.224c0.224-0.113,0.397-0.283,0.503-0.499c0.104-0.217,0.156-0.503,0.156-0.876v-0.297
		l-3.501-0.485V231.54c0-1.325-0.148-2.459-0.439-3.395c-0.291-0.942-0.723-1.708-1.286-2.304c-0.563-0.581-1.272-1.014-2.091-1.29
		c-0.833-0.269-1.783-0.411-2.856-0.411c-1.074,0-2.354,0.224-3.834,0.681c-1.464,0.454-3.034,1.07-4.664,1.857
		c-0.046-0.22-0.067-0.437-0.078-0.674c-0.014-0.227-0.028-0.425-0.046-0.595c-0.014-0.202-0.039-0.391-0.057-0.574h-3.444
		c-0.55,0-1.018,0.014-1.403,0.046c-0.376,0.035-0.681,0.103-0.911,0.223c-0.223,0.114-0.39,0.277-0.507,0.497
		c-0.113,0.22-0.163,0.517-0.163,0.871v0.326l3.522,0.496v18.066l-2.271,0.396c-0.645,0.131-1.116,0.312-1.403,0.528
		c-0.297,0.227-0.439,0.603-0.439,1.147v0.482h7.506c0.542,0,1.01-0.015,1.396-0.043c0.376-0.031,0.681-0.105,0.921-0.223
		c0.241-0.117,0.404-0.283,0.504-0.5c0.103-0.216,0.148-0.507,0.148-0.875v-0.298l-3.175-0.461v-16.255
		c0.616-0.29,1.279-0.574,1.97-0.851c0.702-0.276,1.39-0.528,2.07-0.74c0.677-0.213,1.339-0.376,1.97-0.514
		c0.631-0.139,1.19-0.202,1.68-0.202c1.4,0,2.445,0.379,3.147,1.13C124.403,228.84,124.754,230.094,124.754,231.844 M94.465,214.53
		c-0.379,0.376-0.556,1.021-0.556,1.992c0,0.978,0.184,1.637,0.556,2.013c0.365,0.372,1.024,0.546,2.003,0.546
		c0.964,0,1.63-0.191,1.991-0.546c0.361-0.372,0.542-1.035,0.542-2.013c0-0.476-0.057-0.865-0.127-1.205
		c-0.082-0.333-0.228-0.596-0.415-0.787c-0.188-0.198-0.453-0.333-0.783-0.411c-0.329-0.078-0.733-0.12-1.208-0.12
		C95.496,213.992,94.83,214.176,94.465,214.53 M98.076,245.428l4.132,0.553v0.297c0,0.38-0.063,0.667-0.159,0.876
		c-0.109,0.216-0.28,0.375-0.531,0.499c-0.228,0.11-0.532,0.191-0.922,0.224c-0.375,0.028-0.829,0.043-1.367,0.043h-8.456v-0.482
		c0-0.546,0.142-0.936,0.426-1.148c0.29-0.22,0.751-0.383,1.396-0.527l2.304-0.394v-18.066l-3.519-0.496v-0.326
		c0-0.368,0.05-0.666,0.148-0.871c0.1-0.209,0.27-0.376,0.507-0.496c0.241-0.117,0.542-0.191,0.932-0.224
		c0.373-0.032,0.83-0.046,1.394-0.046h3.721L98.076,245.428L98.076,245.428z M77.346,247.916h8.431c0.553,0,1.021-0.015,1.389-0.043
		c0.379-0.031,0.688-0.105,0.925-0.223c0.241-0.117,0.408-0.276,0.518-0.493c0.092-0.216,0.148-0.503,0.148-0.868v-0.29l-4.1-0.542
		v-31.745h-3.735c-0.553,0-1.013,0.014-1.393,0.043c-0.379,0.042-0.684,0.105-0.911,0.223c-0.227,0.106-0.397,0.276-0.514,0.493
		c-0.099,0.223-0.163,0.517-0.163,0.875v0.298l3.533,0.485v29.253l-2.311,0.387c-0.648,0.135-1.109,0.312-1.393,0.521
		c-0.291,0.224-0.429,0.596-0.429,1.145v0.482H77.346z M56.409,247.916h8.431c0.545,0,1.01-0.015,1.393-0.043
		c0.375-0.031,0.68-0.105,0.921-0.223c0.234-0.117,0.415-0.276,0.521-0.493c0.11-0.216,0.163-0.503,0.163-0.868v-0.29l-4.129-0.542
		v-14.725c0.539-0.528,1.106-1.035,1.698-1.495c0.592-0.461,1.187-0.854,1.782-1.198c0.603-0.34,1.198-0.603,1.786-0.801
		c0.595-0.195,1.163-0.283,1.715-0.283c0.503,0,0.971,0.046,1.417,0.135l0.482,3.643h0.322c0.372,0,0.659-0.061,0.875-0.163
		c0.212-0.106,0.375-0.283,0.5-0.528c0.114-0.233,0.185-0.566,0.224-0.981c0.035-0.4,0.049-0.907,0.049-1.51v-2.855
		c-0.475-0.171-0.985-0.305-1.531-0.4c-0.549-0.093-1.141-0.149-1.786-0.149c-1.198,0-2.427,0.326-3.692,0.979
		c-1.265,0.645-2.534,1.523-3.852,2.646c-0.028-0.244-0.057-0.531-0.075-0.879c-0.035-0.333-0.057-0.662-0.078-0.967
		c-0.05-0.354-0.089-0.713-0.121-1.085h-3.452c-0.546,0-1.01,0.015-1.396,0.047c-0.376,0.035-0.681,0.103-0.907,0.223
		c-0.224,0.106-0.394,0.276-0.51,0.496c-0.106,0.22-0.16,0.518-0.16,0.872v0.326l3.547,0.496v18.094l-2.304,0.383
		c-0.645,0.135-1.109,0.312-1.393,0.524c-0.287,0.227-0.429,0.596-0.429,1.142v0.475H56.409z M45.434,227.135
		c0.709,0.298,1.34,0.769,1.885,1.406c0.528,0.642,0.968,1.464,1.283,2.481c0.326,0.999,0.521,2.211,0.56,3.636H36.026
		c0.121-1.368,0.408-2.559,0.851-3.551c0.447-0.996,0.982-1.829,1.626-2.488c0.656-0.659,1.365-1.134,2.166-1.445
		c0.787-0.319,1.591-0.476,2.427-0.476C43.939,226.681,44.722,226.831,45.434,227.135 M49.797,244.262
		c-0.857,0.51-1.8,0.953-2.817,1.332c-1.014,0.379-2.13,0.57-3.328,0.57c-1.368,0-2.52-0.266-3.48-0.818
		c-0.95-0.549-1.729-1.262-2.339-2.147c-0.603-0.886-1.056-1.893-1.361-2.98c-0.298-1.102-0.468-2.204-0.518-3.31H52.21
		c0-0.015,0-0.074,0.007-0.188c0.007-0.113,0.014-0.228,0.014-0.348v-0.354v-0.213c0-2.069-0.223-3.852-0.691-5.329
		c-0.468-1.481-1.124-2.693-1.921-3.629c-0.818-0.939-1.771-1.623-2.87-2.062c-1.099-0.433-2.282-0.659-3.558-0.659
		c-1.272,0-2.526,0.23-3.777,0.691c-1.248,0.46-2.35,1.184-3.342,2.161c-0.982,0.985-1.769,2.232-2.375,3.757
		c-0.606,1.523-0.911,3.338-0.911,5.457c0,1.63,0.223,3.196,0.656,4.699c0.439,1.51,1.098,2.835,1.97,3.986
		c0.875,1.151,1.97,2.077,3.285,2.771c1.297,0.688,2.835,1.042,4.596,1.042c0.765,0,1.495-0.071,2.193-0.206
		c0.681-0.127,1.336-0.298,1.97-0.514c0.62-0.216,1.216-0.461,1.775-0.744c0.563-0.272,1.12-0.581,1.634-0.9L49.797,244.262z
		 M15.224,216.773c2.871,0,4.983,0.489,6.333,1.442c1.354,0.961,2.038,2.428,2.038,4.412c0,0.794-0.149,1.58-0.45,2.343
		c-0.301,0.758-0.772,1.438-1.424,2.016c-0.645,0.578-1.46,1.053-2.467,1.422c-0.992,0.364-2.19,0.538-3.593,0.538h-3.703v-12.169
		L15.224,216.773L15.224,216.773z M16.819,231.424c2.743,0,4.806,0.616,6.181,1.856c1.375,1.227,2.052,2.991,2.052,5.302
		c0,1.205-0.22,2.226-0.659,3.101c-0.433,0.851-1.056,1.57-1.864,2.119c-0.815,0.546-1.786,0.968-2.945,1.227
		c-1.148,0.258-2.452,0.382-3.884,0.382h-3.742v-13.983h4.862V231.424z M4.653,247.916h11.301c4,0,7.023-0.787,9.061-2.367
		c2.048-1.588,3.086-3.898,3.086-6.953c0-2.261-0.56-4.082-1.669-5.472c-1.127-1.396-2.7-2.402-4.763-3.026
		c0.907-0.418,1.673-0.921,2.307-1.488c0.634-0.573,1.137-1.197,1.531-1.871c0.397-0.669,0.684-1.36,0.854-2.076
		c0.17-0.723,0.262-1.436,0.262-2.147c0-2.647-0.921-4.685-2.764-6.12c-1.854-1.436-4.717-2.154-8.593-2.154H8.24
		c-0.539,0-1.003,0.014-1.389,0.042c-0.375,0.039-0.681,0.106-0.921,0.224c-0.241,0.12-0.411,0.283-0.507,0.503
		c-0.103,0.227-0.152,0.518-0.152,0.865v0.308l3.501,0.485v28.726l-2.275,0.383c-0.656,0.135-1.124,0.312-1.414,0.524
		c-0.294,0.227-0.429,0.596-0.429,1.142V247.916z"/>
	<path d="M317.993,20.638c3.14,0,6.011,0.259,8.618,0.787c2.612,0.521,4.869,1.414,6.776,2.672c1.889,1.262,3.391,2.885,4.458,4.883
		c1.069,2.002,1.608,4.462,1.608,7.414c0,2.827-0.535,5.318-1.608,7.466c-1.074,2.158-2.566,3.948-4.458,5.391
		c-1.907,1.435-4.164,2.537-6.776,3.274c-2.607,0.727-5.45,1.099-8.522,1.099h-7.75V20.638H317.993z M320.482,73.433
		c4.309,0,8.016,0.499,11.145,1.48c3.14,0.982,5.685,2.386,7.654,4.238c1.964,1.836,3.409,4.083,4.373,6.723
		c0.95,2.647,1.425,5.659,1.425,9.026c0,3.749-0.705,6.856-2.119,9.302c-1.41,2.463-3.313,4.434-5.709,5.897
		c-2.396,1.474-5.146,2.509-8.239,3.094c-3.101,0.584-6.344,0.879-9.731,0.879h-8.937v-40.64H320.482z M284.272,0
		c-4.001,0-7.18,0.17-9.533,0.514c-2.363,0.337-4.156,0.982-5.354,1.928c-1.188,0.957-1.967,2.258-2.304,3.916
		c-0.34,1.659-0.51,3.81-0.51,6.446v2.307l13.537,2.949v98.21l-2.846,0.737c-2.215,0.55-4.022,1.138-5.433,1.754
		c-1.428,0.61-2.537,1.361-3.377,2.254c-0.829,0.89-1.418,1.999-1.74,3.317c-0.348,1.314-0.518,2.959-0.518,4.922v5.437h56.849
		c8.544,0,15.954-0.981,22.262-2.945c6.287-1.97,11.518-4.702,15.653-8.211c4.156-3.501,7.229-7.657,9.26-12.478
		c2.041-4.819,3.044-10.12,3.044-15.89c0-4.062-0.55-7.697-1.651-10.926c-1.116-3.225-2.647-6.095-4.614-8.611
		c-1.963-2.52-4.358-4.706-7.18-6.549c-2.824-1.842-5.939-3.401-9.31-4.698c2.945-1.779,5.5-3.824,7.654-6.124
		c2.147-2.307,3.885-4.752,5.238-7.332c1.35-2.58,2.35-5.23,2.994-7.966c0.645-2.736,0.968-5.391,0.968-7.97
		c0-5.524-1.092-10.458-3.261-14.784c-2.193-4.331-5.368-7.999-9.532-11.011c-4.182-3.008-9.299-5.298-15.348-6.868
		C333.175,0.765,326.257,0,318.454,0H284.272z M168.086,0v13.08c0,3.997,0.199,7.172,0.553,9.536
		c0.38,2.356,1.024,4.149,1.981,5.347s2.258,1.963,3.916,2.304c1.654,0.344,3.773,0.507,6.357,0.507h2.304l2.317-10.589h33.899
		l-53.716,101.443l0.723,13.076h90.11v-13.176c0-3.993-0.171-7.169-0.507-9.536c-0.341-2.363-0.982-4.149-1.936-5.344
		c-0.956-1.197-2.257-1.963-3.915-2.307c-1.659-0.341-3.81-0.511-6.436-0.511h-2.215l-2.201,10.231h-38.436l46.168-89.001
		c1.152-2.268,2.06-4.358,2.715-6.262c0.645-1.903,1.091-3.646,1.325-5.212c0.244-1.57,0.376-2.98,0.376-4.239
		c0-1.261-0.061-2.41-0.178-3.455L250.46,0H168.086z M51.501,0H17.779c-3.99,0-7.172,0.17-9.536,0.514
		C5.886,0.847,4.086,1.491,2.86,2.441C1.627,3.398,0.84,4.699,0.504,6.357C0.17,8.016,0,10.167,0,12.807v2.307l10.596,2.119
		l21.929,117.475h14.738c1.226,0,2.499-0.074,3.778-0.224c1.29-0.155,2.53-0.535,3.728-1.151c1.198-0.609,2.307-1.562,3.317-2.856
		c1.021-1.282,1.829-3.072,2.445-5.348l18.612-70.85l21.652,80.436h15.029c1.105,0,2.289-0.074,3.548-0.223
		c1.269-0.156,2.441-0.557,3.554-1.198c1.105-0.645,2.119-1.608,3.041-2.906c0.921-1.286,1.626-3.044,2.119-5.251l19.61-107.354
		c0.114,0,0.234-0.028,0.369-0.088c2.15-0.546,3.926-1.13,5.344-1.744c1.421-0.613,2.534-1.368,3.377-2.257
		c0.822-0.893,1.41-1.995,1.736-3.32c0.337-1.315,0.518-2.959,0.518-4.926V0h-30.773c-3.994,0-7.173,0.17-9.54,0.514
		c-2.36,0.337-4.16,0.982-5.387,1.928c-1.229,0.957-2.013,2.258-2.342,3.916c-0.344,1.659-0.521,3.81-0.521,6.446v2.307
		l11.528,2.304l-10.791,63.397L86.701,0H71.867c-0.312,1.286-0.829,3.289-1.566,5.985c-0.737,2.704-1.616,5.869-2.637,9.494
		c-1.003,3.625-2.119,7.569-3.317,11.836c-1.198,4.271-2.414,8.612-3.64,13.038c-1.229,4.423-2.441,8.774-3.639,13.041
		c-1.198,4.277-2.307,8.218-3.317,11.847c-1,3.622-1.889,6.804-2.626,9.532c-0.737,2.736-1.262,4.745-1.566,6.039L37.961,18.339
		l2.488-0.648c2.211-0.546,4.025-1.13,5.436-1.744c1.421-0.613,2.53-1.368,3.363-2.257c0.833-0.893,1.425-1.995,1.747-3.32
		c0.34-1.315,0.51-2.959,0.51-4.926L51.501,0L51.501,0z"/>
</g>
</svg>
